<?xml version="1.0" encoding="UTF-8" standalone="no"?>
<svg
   xmlns:dc="http://purl.org/dc/elements/1.1/"
   xmlns:cc="http://creativecommons.org/ns#"
   xmlns:rdf="http://www.w3.org/1999/02/22-rdf-syntax-ns#"
   xmlns:svg="http://www.w3.org/2000/svg"
   xmlns="http://www.w3.org/2000/svg"
   xmlns:sodipodi="http://sodipodi.sourceforge.net/DTD/sodipodi-0.dtd"
   xmlns:inkscape="http://www.inkscape.org/namespaces/inkscape"
   version="1.1"
   width="945.45306"
   height="674.34296"
   id="svg3805"
   sodipodi:docname="BNM Logo - Black.svg"
   inkscape:version="0.92.3 (2405546, 2018-03-11)">
  <metadata
     id="metadata3811">
    <rdf:RDF>
      <cc:Work
         rdf:about="">
        <dc:format>image/svg+xml</dc:format>
        <dc:type
           rdf:resource="http://purl.org/dc/dcmitype/StillImage" />
        <dc:title></dc:title>
      </cc:Work>
    </rdf:RDF>
  </metadata>
  <defs
     id="defs3809" />
  <sodipodi:namedview
     pagecolor="#ffffff"
     bordercolor="#666666"
     borderopacity="1"
     objecttolerance="10"
     gridtolerance="10"
     guidetolerance="10"
     inkscape:pageopacity="0"
     inkscape:pageshadow="2"
     inkscape:window-width="1858"
     inkscape:window-height="1057"
     id="namedview3807"
     showgrid="false"
     inkscape:zoom="0.75952416"
     inkscape:cx="481.10775"
     inkscape:cy="445.52454"
     inkscape:window-x="1912"
     inkscape:window-y="-8"
     inkscape:window-maximized="1"
     inkscape:current-layer="svg3805" />
  <g
     transform="matrix(8.5470085,0,0,8.5470085,-1025.641,-42.735133)"
     id="g3803"
     style="fill:#000000;fill-opacity:1;stroke:#000000">
    <defs
       id="SvgjsDefs1040" />
    <g
       id="main_text"
       rel="mainfill"
       name="main_text"
       feature="main_text"
       groupName="main_text"
       transform="matrix(1.8955528,0,0,1.8955528,-3.3361707,81.030164)"
       style="fill:#000000;fill-opacity:1;stroke:#000000" />
    <g
       id="slogan_text"
       rel="mainfill"
       name="slogan_text"
       feature="slogan_text"
       groupName="slogan_text"
       transform="matrix(0.77659032,0,0,0.77659032,28.757456,143.05492)"
       style="fill:#000000;fill-opacity:1;stroke:#000000" />
    <g
       id="SvgjsG1043"
       rel="mainfill"
       name="symbol"
       feature="symbol"
       transform="matrix(0.34468383,0,0,0.34468383,106.38498,-24.470457)"
       style="fill:#000000;fill-opacity:1;stroke:#000000">
      <g
         id="g3800"
         style="fill:#000000;fill-opacity:1;stroke:#000000">
        <path
           d="m 360,258.3 c -0.3,-1.8 -1,-3.5 -1.8,-5.1 -0.4,-0.9 -0.8,-1.7 -1.3,-2.6 -1.5,-2.9 -3.4,-5.6 -5.3,-8.2 -1.2,-1.6 -2.4,-3.2 -3.7,-4.8 0,-0.1 -0.1,-0.1 -0.1,-0.2 0.8,-1 1.5,-2 1.9,-3.2 0.7,-0.5 1,-1 1.6,-1.8 0.7,-1 0.8,-2.3 0.9,-3.4 0.1,-0.8 -0.1,-1.7 -0.2,-2.6 -0.3,-2.3 -0.6,-4.7 -0.9,-7 -0.3,-2 -0.7,-4 -1,-6 -0.5,-3.7 -0.8,-7.5 -1.1,-11.3 -0.4,-3.8 -0.7,-7.5 -1,-11.3 -0.6,-7.9 -0.9,-15.7 -1.2,-23.6 -0.3,-7.8 -0.7,-15.7 -1,-23.5 -0.3,-7.9 -0.4,-15.7 -0.5,-23.6 -0.1,-2.2 -0.1,-4.4 0,-6.5 0,-1 0.1,-2 0.2,-3 0.7,-1 1.1,-2.1 1.6,-3.2 0.4,-1.2 0.5,-2.5 0.6,-3.7 0.1,-1.9 -0.4,-3.7 -1.1,-5.3 -0.7,-1.4 -1.6,-2.6 -2.6,-3.7 -1.1,-1.3 -2.5,-2.3 -3.9,-3.3 -1,-0.7 -2.2,-1.3 -3.3,-1.8 -1.4,-0.7 -2.9,-1.2 -4.4,-1.7 -1.6,-0.5 -3.3,-0.7 -4.9,-1 -2.6,-0.4 -5.2,-0.6 -7.8,-0.7 -2.4,-0.1 -4.8,-0.2 -7.2,-0.3 -4.1,-0.2 -8.2,-0.4 -12.2,-0.4 -0.3,0 -0.6,0 -0.9,0 -4.3,0 -8.6,0.4 -12.9,0.8 -4.8,0.5 -9.5,1.1 -14.2,2 -2.1,0.4 -4.3,0.9 -6.4,1.5 -2.1,0.6 -4.2,1.1 -6.2,1.7 -2.3,0.7 -4.4,1.8 -6.4,3 -1.8,1 -3.4,2.2 -5,3.4 -0.7,0.5 -1.3,1.1 -1.9,1.7 -1.2,1.2 -2,2.7 -2.6,4.3 -0.7,1.9 -1.3,3.9 -1.6,5.9 -0.8,4.5 -1.4,9.1 -1.8,13.7 -0.8,8.9 -1.1,17.9 -1.7,26.8 -0.6,8.8 -1.2,17.5 -1.5,26.3 -0.2,4.4 -0.2,8.7 0.1,13.1 0.2,2.4 0.3,4.8 0.5,7.1 -2.7,0 -5.3,0 -8,-0.1 -0.9,0 -1.7,0 -2.6,0 -6.1,0 -12.3,0.1 -18.4,0.1 -6.4,0.1 -12.9,0.2 -19.3,0.6 -7,0.4 -14.1,0.9 -21.1,1.4 -6,0.4 -12.1,0.8 -18.1,1.3 -0.5,0 -0.9,0.1 -1.3,0.3 -2.3,0.2 -4.6,0.5 -6.9,0.8 -1.6,0.2 -3.1,0.5 -4.6,0.7 -1.3,0.2 -2.6,0.5 -3.9,0.8 -0.7,0.1 -1.3,0.2 -2,0.4 -5.6,1.1 -11.3,2 -17,3.2 -2.7,0.6 -5.4,1.3 -8.1,2 -2.7,0.8 -5.5,1.5 -8.2,2.3 -2.6,0.8 -5.2,1.4 -7.8,2.2 -1.2,0.3 -2.4,0.7 -3.5,1.1 -0.6,0.2 -1.2,0.4 -1.8,0.6 -0.3,0.1 -0.6,0.2 -1,0.3 -0.2,0.1 -0.5,0.2 -0.7,0.3 -1.1,0.1 -2.2,0.1 -3.4,0.2 -2.9,0.3 -5.8,0.9 -8.7,1.5 -1.2,0.2 -2.4,0.5 -3.6,0.8 -1.2,0.3 -2.5,0.7 -3.7,1 -1.2,0.3 -2.4,0.6 -3.5,1 -1.4,0.4 -2.8,1 -4.1,1.6 -1.2,0.5 -2.4,1.3 -3.6,2 -1.4,0.8 -2.6,1.9 -3.8,2.9 -1,0.9 -1.9,1.8 -2.8,2.7 -1.1,1.1 -2.1,2.1 -3.1,3.2 -0.2,0.2 -0.3,0.3 -0.5,0.5 -0.6,0.6 -0.8,1.4 -0.8,2.2 -0.4,0.6 -0.8,1.3 -1.1,2.1 -0.4,1 -0.5,2 -0.6,3.1 -0.1,0.9 0.1,1.8 0.3,2.6 0.2,0.9 0.6,1.7 1,2.5 0.5,1 1.3,2 2.1,2.9 0.3,0.3 0.6,0.6 0.9,1 0,0 0,0.1 -0.1,0.1 -0.9,1.2 -1.7,2.5 -2.4,3.8 -1.1,2.1 -1.8,4.3 -2.2,6.6 -0.2,1 -0.3,2.1 -0.3,3.1 0,1.1 0.1,2.1 0.3,3.1 0.4,2.4 1.4,4.7 2.6,6.7 1,1.8 2.4,3.5 3.8,5.1 1.5,1.7 3.3,3.3 5.1,4.7 0.8,0.6 1.6,1.2 2.3,1.8 0.7,0.5 1.4,0.9 2.1,1.4 1.5,0.9 3,1.7 4.5,2.6 0.7,0.4 1.5,0.7 2.2,1.1 0.6,0.3 1.3,0.6 1.9,1 1.7,0.8 3.3,1.6 5,2.3 3.4,1.5 6.9,2.9 10.4,4.1 3.1,1.1 6.2,2.1 9.3,3.1 3.1,1 6.3,1.9 9.4,2.8 3.3,0.9 6.6,1.8 10,2.6 3.4,0.8 6.8,1.5 10.3,2.1 3.3,0.6 6.6,1.1 10,1.6 7.1,1 14.3,2 21.4,2.8 6.7,0.7 13.4,1.4 20.2,1.8 7.1,0.4 14.2,0.7 21.2,0.9 6.7,0.2 13.4,0.2 20.1,0.3 3.5,0 7,0 10.5,-0.1 3.3,0 6.6,-0.3 9.9,-0.5 3.3,-0.2 6.5,-0.6 9.8,-0.9 3.3,-0.4 6.6,-0.7 9.9,-1.1 7.3,-0.8 14.6,-1.6 21.8,-2.7 6.7,-1 13.3,-2.2 19.9,-3.6 3.3,-0.7 6.7,-1.5 10,-2.3 3.3,-0.8 6.5,-1.7 9.7,-2.7 3.2,-1 6.4,-2.1 9.6,-3.3 3.4,-1.4 6.8,-2.8 10.1,-4.3 3.3,-1.5 6.5,-3 9.6,-4.8 1.4,-0.8 2.8,-1.7 4.1,-2.7 1.6,-1.1 3,-2.4 4.4,-3.7 1.3,-1.2 2.5,-2.6 3.6,-4.1 0.5,-0.7 1,-1.3 1.5,-2 0.5,-0.8 1,-1.6 1.5,-2.4 0.6,-1 1,-2.1 1.4,-3.2 0.4,-1.1 0.7,-2.2 1,-3.3 0.3,-1.3 0.4,-2.7 0.5,-4 0.1,-1.3 -0.1,-2.9 -0.4,-4.4 z m -129.1,30.3 c 0.1,-0.1 0.2,-0.2 0.3,-0.2 0,0 0.1,-0.1 0.1,-0.1 -0.2,0.1 -0.3,0.2 -0.4,0.3 z m 4.7,-2.7 c -0.1,-0.2 -0.2,-0.4 -0.3,-0.6 -0.1,-0.2 -0.2,-0.4 -0.4,-0.5 -0.1,-0.2 -0.2,-0.4 -0.3,-0.6 -0.3,-0.5 -0.7,-1 -1,-1.4 -0.2,-0.2 -0.3,-0.3 -0.5,-0.5 -0.3,-0.5 -0.8,-0.8 -1.3,-1.1 -0.6,-0.3 -1.1,-0.4 -1.8,-0.4 -0.2,0 -0.3,0 -0.5,0 -0.2,0 -0.4,0 -0.6,0 -0.1,0 -0.1,0 -0.2,0 -1.1,0 -2.2,0.4 -3.2,0.9 -0.2,0.1 -0.4,0.3 -0.6,0.4 0,0 0,0 0,0 -0.4,0.2 -0.8,0.5 -1.2,0.8 -0.4,0.3 -0.7,0.8 -1,1.2 -0.3,0.4 -0.5,0.9 -0.7,1.4 -0.1,0.2 -0.1,0.5 -0.2,0.8 -0.1,0.6 -0.1,1 0,1.6 0.1,0.4 0.2,0.8 0.4,1.1 -2.1,0 -4.3,0 -6.4,-0.1 -2.4,-0.1 -4.9,-0.2 -7.3,-0.5 -1.8,-0.2 -3.6,-0.4 -5.4,-0.6 1.2,-2.8 1.4,-6.1 0.9,-9.1 -0.3,-1.8 -0.9,-3.5 -1.7,-5.1 -0.4,-0.7 -0.8,-1.3 -1.3,-1.9 -0.6,-0.8 -1.3,-1.6 -2.1,-2.4 -1.4,-1.4 -3,-2.5 -4.6,-3.6 0.8,-0.1 1.6,-0.2 2.4,-0.3 1.6,-0.2 3.1,-0.4 4.7,-0.7 1.6,-0.3 3.1,-0.6 4.7,-1 0.7,-0.2 1.3,-0.4 2,-0.6 0.6,-0.2 1.3,-0.4 1.9,-0.7 1.5,-0.6 3.1,-1.3 4.5,-2 1.4,-0.7 2.8,-1.5 4.2,-2.3 0.6,-0.4 1.2,-0.8 1.8,-1.2 0.7,-0.5 1.3,-1 1.9,-1.5 1,-0.8 1.7,-1.8 2.5,-2.8 0.8,-1.1 1.4,-2.2 1.9,-3.5 1.2,0 2.3,-0.1 3.5,-0.1 4.3,-0.1 8.5,0.4 12.7,0.9 3.6,0.5 7.2,1.1 10.7,1.8 1.8,0.4 3.5,0.9 5.2,1.4 1.6,0.5 3.1,1 4.6,1.6 1.3,0.6 2.6,1.2 3.9,1.9 1.4,0.8 2.7,1.7 4,2.6 1.4,1.2 2.8,2.3 4,3.8 0.7,0.9 1.2,1.8 1.7,2.8 0.4,0.9 0.6,1.8 0.8,2.8 0.1,0.8 0.1,1.6 0,2.3 -0.1,0.8 -0.4,1.6 -0.7,2.4 -0.4,0.9 -0.9,1.8 -1.5,2.6 -0.8,1 -1.7,1.9 -2.7,2.7 -1.9,1.4 -4,2.6 -6.2,3.5 -0.9,0.3 -1.7,0.7 -2.6,1 -1,0.3 -1.9,0.7 -2.9,1 -1.8,0.6 -3.7,1.1 -5.6,1.6 -3.6,0.9 -7.2,1.5 -10.8,2.1 -2.4,0.3 -4.9,0.6 -7.3,0.7 -0.8,0 -1.6,0.1 -2.3,0.1 0,-0.1 0.1,-0.3 0.1,-0.4 0,-0.2 0,-0.4 0.1,-0.6 0.2,-0.6 0.3,-1.2 0.1,-1.7 z m -52.5,8.6 c -1.7,0.5 -3.5,1 -5.3,1.5 -3.4,0.9 -6.9,1.5 -10.4,2.1 -2,0.3 -4,0.5 -6,0.7 -1,0.1 -1.9,0.1 -2.9,0.1 -1.1,0 -2.2,0.1 -3.3,0 -2.2,-0.1 -4.5,-0.1 -6.7,-0.3 -0.8,-0.1 -1.7,-0.2 -2.5,-0.3 0.2,-0.1 0.4,-0.1 0.5,-0.2 1,-0.6 1.9,-1.8 1.8,-3 -0.1,-0.8 -0.2,-1.3 -0.5,-2 -0.2,-0.4 -0.6,-0.8 -1,-1.2 -0.3,-0.3 -0.5,-0.5 -0.8,-0.8 -0.5,-0.5 -1,-0.9 -1.6,-1.3 -0.4,-0.3 -0.9,-0.5 -1.3,-0.6 -0.5,-0.1 -0.9,-0.2 -1.3,-0.2 -0.2,0 -0.5,0 -0.7,0.1 -1.2,0.2 -2.2,0.9 -3,1.7 -0.5,0.5 -0.9,1.1 -1.2,1.7 -0.1,0.2 -0.2,0.3 -0.3,0.5 -0.4,0.7 -0.6,1.8 -0.3,2.6 0.2,0.4 0.3,0.9 0.6,1.3 0.1,0.1 0.1,0.1 0.2,0.2 -0.6,-0.1 -1.1,-0.2 -1.7,-0.3 -2.2,-0.4 -4.4,-0.9 -6.6,-1.5 -2.3,-0.6 -4.5,-1.2 -6.8,-1.9 -2,-0.6 -4,-1.4 -6,-2.2 -0.9,-0.4 -1.9,-0.8 -2.8,-1.3 -1.2,-0.6 -2.5,-1.2 -3.7,-1.9 -1.2,-0.7 -2.4,-1.4 -3.6,-2.1 -1,-0.6 -2,-1.4 -2.9,-2 -1.1,-0.9 -2.2,-1.7 -3.2,-2.7 -1.4,-1.4 -2.8,-2.7 -4.1,-4.3 -0.9,-1.2 -1.6,-2.4 -2.3,-3.7 -0.5,-1.3 -0.9,-2.7 -1.1,-4.1 -0.2,-1.6 -0.2,-3.2 0,-4.9 0.1,-0.6 0.2,-1.1 0.3,-1.7 0.3,0 0.6,0 0.9,0 2.7,0.1 5.4,0.1 8.1,0.1 5.8,-0.1 11.7,-0.6 17.5,-1.6 2.8,-0.5 5.6,-1 8.3,-1.7 1.5,-0.4 2.9,-0.8 4.3,-1.3 1.4,-0.5 2.7,-1.1 4.1,-1.7 0.6,-0.3 1.3,-0.6 1.9,-0.9 1.9,0.2 3.9,0.5 5.8,0.7 2.5,0.4 4.9,0.8 7.3,1.3 2.7,0.6 5.5,1.2 8.2,1.7 2.4,0.5 4.9,0.9 7.3,1.6 2.7,0.7 5.3,1.5 7.9,2.4 1.8,0.6 3.7,1.1 5.5,1.7 1.9,0.6 3.8,1.2 5.6,2 0.6,0.3 1.2,0.5 1.8,0.8 0.9,0.4 1.7,0.9 2.6,1.4 1.4,0.8 2.6,1.7 3.9,2.6 1.1,0.9 2,1.8 2.9,2.9 0.5,0.7 1,1.5 1.4,2.3 0.3,0.9 0.6,1.8 0.7,2.7 0.1,1.1 0.1,2.1 0,3.2 -0.1,0.8 -0.4,1.7 -0.7,2.5 -0.2,0.4 -0.4,0.8 -0.7,1.2 -0.7,0.9 -1.5,1.7 -2.4,2.4 -0.3,0.2 -0.5,0.4 -0.8,0.6 -0.5,0.3 -1,0.7 -1.5,1 -0.6,0.4 -1.2,0.7 -1.8,1 -1.2,0.7 -2.4,1.2 -3.7,1.7 0.2,-0.1 0.5,-0.2 0.7,-0.3 -1.4,0.6 -3,1.2 -4.6,1.7 z m -63.4,-43.8 c 0,0 0,0 0,0 0,0.1 0,0.1 0,0.2 0,-0.1 0,-0.1 0,-0.2 z M 149.3,233 c -1.1,-1.5 -2.4,-2.9 -3.8,-4.2 -1.2,-1 -2.4,-2 -3.7,-2.7 -0.5,-0.3 -1,-0.6 -1.6,-0.9 0.5,-0.4 1.1,-0.7 1.7,-1 1.1,-0.6 2.3,-1.2 3.5,-1.7 0.9,-0.4 1.9,-0.7 2.8,-1.1 0.9,-0.3 1.9,-0.5 2.9,-0.7 1.2,-0.1 2.3,-0.2 3.5,-0.3 1.5,-0.1 2.9,-0.3 4.4,-0.4 2.9,-0.3 5.7,-0.3 8.6,-0.3 5.8,0.1 11.6,0.4 17.3,0.9 4.6,0.3 9.2,0.8 13.7,1.4 2.9,0.4 5.9,0.9 8.8,1.5 2.4,0.5 4.9,1.1 7.3,1.9 -0.3,0 -0.7,0.1 -1,0.3 -0.6,0.3 -1,0.8 -1.4,1.3 -0.1,0.3 -0.2,0.5 -0.3,0.8 0,0 0,0.1 0,0.1 -0.4,0.3 -0.7,0.7 -1,1.1 -0.7,1 -1,2.4 -0.7,3.6 0.3,1.2 1.1,2.3 2.2,2.8 0.7,0.3 1.4,0.5 2.1,0.5 0.1,0 0.3,0 0.4,0 0.8,0 1.6,-0.2 2.3,-0.6 1.1,-0.6 1.8,-1.8 2.1,-2.9 0.1,-0.7 0.1,-1.3 0,-2 0,-0.5 -0.2,-1 -0.3,-1.5 -0.2,-0.7 -0.6,-1.5 -1.2,-2.2 0.6,0.3 1.1,0.6 1.6,1 0.5,0.5 1,0.9 1.5,1.5 0.8,1.1 1.4,2.4 2,3.7 0.5,1.4 1,2.8 1.3,4.3 0.1,0.9 0,1.8 -0.1,2.6 -0.2,1.1 -0.4,2.3 -0.7,3.4 -0.4,1.3 -0.8,2.6 -1.3,3.8 -0.5,1 -1,1.9 -1.6,2.8 -0.5,0.5 -0.9,1 -1.5,1.5 0,-0.5 -0.1,-1 -0.4,-1.4 -0.7,-1.1 -1.8,-1.8 -3.1,-2.3 -0.8,-0.3 -1.6,-0.4 -2.4,-0.4 -0.9,0 -1.8,0.2 -2.6,0.6 -1.5,0.7 -2.7,2.3 -2.7,4 0,0.8 0.1,1.5 0.3,2.2 0,0.3 0,0.6 0.1,0.9 0.2,0.9 0.8,1.5 1.6,1.9 -1.7,0.7 -3.5,1.3 -5.4,1.8 -2.2,0.5 -4.4,1 -6.6,1.3 -2.8,0.3 -5.5,0.6 -8.3,0.7 -1.7,0 -3.4,0 -5.1,0 -0.4,-0.2 -0.8,-0.3 -1.2,-0.5 -2.4,-0.9 -4.8,-1.6 -7.2,-2.5 -2.6,-0.9 -5.1,-1.8 -7.7,-2.6 -2.4,-0.7 -4.8,-1.1 -7.2,-1.6 -5.3,-1 -10.5,-2.3 -15.8,-3.1 0.4,-0.4 0.8,-0.7 1.1,-1.1 0.5,-0.5 0.9,-1 1.3,-1.5 0.9,-1.1 1.7,-2.3 2.3,-3.7 0.8,-1.8 1.2,-3.8 1.1,-5.8 -0.1,-1.9 -0.9,-3.7 -1.9,-5.2 z m 154.2,13.8 c -2.1,0.2 -4.2,0.3 -6.4,0.3 -2.6,0 -5.2,0 -7.7,-0.2 -5.1,-0.4 -10.2,-0.7 -15.3,-1.3 -0.1,0 -0.2,0 -0.3,-0.1 -1.3,-0.4 -2.6,-0.9 -3.9,-1.3 -2.1,-0.8 -4.3,-1.5 -6.3,-2.4 -1.1,-0.5 -2.2,-0.9 -3.2,-1.4 -1.2,-0.6 -2.4,-1.2 -3.5,-1.9 -0.4,-0.3 -0.9,-0.5 -1.3,-0.8 -0.8,-0.7 -1.5,-1.4 -2.2,-2.1 -0.8,-0.8 -1.7,-1.7 -2.5,-2.6 0,-1.1 -0.2,-2.2 -0.4,-3.3 -0.1,-0.9 -0.3,-1.8 -0.4,-2.6 -0.5,-3.9 -0.9,-7.9 -1.4,-11.8 -0.6,-4.4 -1.1,-8.7 -1.5,-13.1 -0.4,-4.5 -0.8,-9 -1.1,-13.5 -0.3,-4.4 -0.3,-8.8 -0.2,-13.2 0.1,-8.9 0.5,-17.8 0.7,-26.8 0,-1.5 0,-3.1 0,-4.6 0.7,0.3 1.5,0.7 2.2,0.9 1.5,0.4 3,0.7 4.5,0.9 2.6,0.3 5.2,0.6 7.7,0.9 1.8,0.3 3.5,0.6 5.3,0.9 1.8,0.4 3.7,0.7 5.5,1 1.9,0.3 3.8,0.4 5.7,0.6 1.8,0.1 3.6,0.2 5.3,0.3 1.9,0.1 3.9,0.1 5.8,0.1 1.8,0 3.5,-0.2 5.3,-0.3 3.8,-0.3 7.5,-0.5 11.3,-0.7 3.7,-0.2 7.3,-0.5 11,-0.8 3.8,-0.4 7.5,-0.7 11.2,-1.3 1,-0.2 2.1,-0.4 3.1,-0.6 1.1,-0.3 2.2,-0.7 3.2,-1.1 1.1,-0.4 2.2,-0.9 3.3,-1.4 1,-0.4 2.1,-0.9 2.9,-1.7 0,-0.1 0.1,-0.1 0.1,-0.2 0.2,0.1 0.3,0.1 0.5,0.1 -0.1,3 -0.3,6 -0.4,9 -0.3,8 -0.5,16 -0.8,24 -0.2,3.9 -0.3,7.9 -0.3,11.9 0,3.8 0.2,7.7 0.3,11.5 0.1,3.8 0.3,7.7 0.4,11.5 0.1,3.9 0.5,7.7 0.8,11.6 0.2,1.9 0.3,3.8 0.3,5.7 0,0.8 0,1.6 0,2.4 0,0.1 0,0.1 0,0.2 -0.3,0.2 -0.6,0.5 -0.8,0.8 -0.6,0.6 -1.3,1.2 -2,1.7 -1.9,1.4 -3.8,2.6 -5.8,3.9 -2.2,1.4 -4.4,2.5 -6.8,3.5 -3.5,1.5 -7.1,2.8 -10.7,4.3 -1.9,0.8 -3.8,1.5 -5.7,2.1 -1.7,0.3 -3.6,0.7 -5.5,1 z M 251.9,104.7 c 0.9,-0.5 1.8,-1.1 2.7,-1.6 1.7,-1 3.5,-2 5.3,-2.8 2.5,-0.9 5,-1.5 7.6,-2.1 2.8,-0.7 5.7,-1.2 8.5,-1.7 3.5,-0.4 7.1,-0.7 10.7,-1 4,-0.3 8,-0.5 12.1,-0.5 4.1,0.1 8.2,0.3 12.3,0.6 4,0.3 7.9,0.6 11.9,1 0.8,0.1 1.5,0.2 2.2,0.4 1.9,0.4 3.7,0.8 5.4,1.5 1.2,0.6 2.3,1.2 3.4,2 0.7,0.6 1.4,1.3 2,2 0.2,0.2 0.3,0.5 0.4,0.7 0,0.1 0,0.2 0,0.3 -0.1,0.2 -0.1,0.5 -0.2,0.7 -0.5,0.3 -1,0.5 -1.5,0.8 -2.2,0.9 -4.4,1.6 -6.6,2.2 -2.4,0.7 -4.9,1.1 -7.4,1.5 -7.6,0.7 -15.3,0.8 -22.9,1.4 -4.1,0.3 -8.1,0.7 -12.2,0.7 -1.9,0 -3.8,0.1 -5.7,0 -2.1,-0.1 -4.1,-0.3 -6.2,-0.5 -3.2,-0.4 -6.4,-1 -9.6,-1.5 -1.6,-0.3 -3.1,-0.5 -4.7,-0.8 -2,-0.4 -3.9,-0.9 -5.8,-1.6 -0.8,-0.4 -1.6,-0.8 -2.3,-1.3 -0.1,-0.1 -0.2,-0.2 -0.3,-0.2 0.5,0 0.7,-0.1 0.9,-0.2 z m -5.5,17.9 c 0.1,-3.3 0.4,-6.7 0.8,-10 0.2,-1.1 0.4,-2.1 0.6,-3.1 0.5,0.4 1,0.8 1.5,1.1 1.3,0.8 2.7,1.4 4.1,1.9 1.1,0.4 2.1,0.8 3.2,1.1 2,0.7 4.2,1 6.3,1.5 2.3,0.5 4.6,1 6.9,1.5 2.3,0.5 4.6,1 6.9,1.3 2.3,0.3 4.6,0.5 7,0.7 2.4,0.2 4.7,0.2 7.1,0.2 2.3,0 4.7,0 7,0 2.1,0 4.1,-0.1 6.2,0 4.5,0 9,0.2 13.6,0.2 4.7,-0.1 9.4,-0.6 14,-1.6 2,-0.4 4,-1.1 6,-1.7 0.9,-0.3 1.8,-0.6 2.7,-1 0.5,-0.2 1,-0.4 1.5,-0.6 -0.3,4.5 -0.5,9.1 -0.7,13.6 -0.2,3.6 -0.3,7.1 -0.5,10.7 -0.4,0 -0.7,0.2 -1,0.4 -0.3,-0.2 -0.7,-0.3 -1.1,-0.4 -0.1,0 -0.1,0 -0.2,0 -0.6,0 -1.1,0.2 -1.6,0.4 -0.3,0.1 -0.6,0.3 -0.9,0.5 -0.5,0.2 -1,0.5 -1.6,0.7 -1.1,0.4 -2.1,0.9 -3.2,1.2 -1.2,0.4 -2.4,0.6 -3.6,0.8 -3.4,0.4 -6.9,0.7 -10.3,1 -3.7,0.3 -7.3,0.6 -11,0.9 -3.6,0.3 -7.2,0.5 -10.8,0.8 -1.9,0.2 -3.8,0.3 -5.7,0.5 -1.9,0.1 -3.8,0.1 -5.7,0.1 -3.6,0 -7.2,-0.1 -10.7,-0.4 -1.9,-0.1 -3.8,-0.4 -5.6,-0.6 -1.7,-0.2 -3.4,-0.5 -5.2,-0.6 -3.6,-0.3 -7.3,-0.3 -10.9,-0.7 -1.3,-0.2 -2.6,-0.4 -3.9,-0.9 -0.4,-0.2 -0.8,-0.4 -1.2,-0.6 0,-1.9 0,-3.7 -0.1,-5.6 0,-4.4 -0.1,-8.9 0.1,-13.3 z m -75.7,82.8 c 3.2,-0.2 6.5,-0.4 9.7,-0.5 3.6,-0.2 7.2,-0.4 10.7,-0.5 2.2,-0.1 4.4,-0.1 6.5,-0.2 1.6,0 3.3,0 4.9,0 3.6,0 7.2,0 10.7,0 6.7,0 13.3,0.1 20,0.2 1.6,0 3.2,0.1 4.9,0.1 0.4,3.9 0.9,7.9 1.4,11.8 0.6,4.3 1,8.6 1.5,12.9 0.2,1.2 0.3,2.3 0.5,3.4 0.2,1.1 0.5,2 1,3 0.3,0.4 0.6,0.8 1,1.1 0.1,0.4 0.3,0.8 0.6,1.2 1.4,1.7 2.9,3.3 4.5,4.8 0.8,0.8 1.6,1.5 2.4,2.2 1.4,1.2 3,2.2 4.6,3.1 1.8,1 3.8,1.7 5.7,2.4 -0.3,-0.1 -0.7,-0.2 -1,-0.3 -1.2,-0.3 -2.3,-0.7 -3.5,-1 -1.2,-0.3 -2.4,-0.6 -3.6,-0.8 -2.1,-0.5 -4.3,-0.8 -6.5,-1.1 -2.3,-0.3 -4.7,-0.7 -7,-0.9 -2.4,-0.2 -4.8,-0.4 -7.3,-0.5 -0.7,0 -1.5,0 -2.2,0 -0.7,0 -1.5,0 -2.2,0 0,-0.1 0.1,-0.1 0.1,-0.2 0.5,-1.5 0.8,-3 1.1,-4.5 0.2,-0.9 0.3,-1.9 0.3,-2.8 0.1,-1.1 -0.1,-2.1 -0.3,-3.2 -0.2,-1 -0.5,-2 -0.8,-3 -0.6,-1.7 -1.2,-3.3 -2,-4.9 -2.6,-5.1 -8.1,-7.5 -13.2,-9.2 -5.6,-1.8 -11.5,-2.9 -17.3,-3.9 -6.1,-1 -12.2,-1.8 -18.3,-2.3 -3,-0.3 -5.9,-0.4 -8.9,-0.6 -1.4,-0.1 -2.8,-0.1 -4.1,-0.1 -1.4,0 -2.8,0 -4.2,0.2 -2.9,0.3 -5.8,0.6 -8.7,1 -1.7,0.2 -3.4,0.5 -5,1 -1.7,0.5 -3.3,1.3 -4.9,2.1 -2.4,1.1 -4.8,2.4 -7,4 -0.8,0.6 -1.6,1.2 -2.3,1.9 -0.2,0.2 -0.3,0.3 -0.5,0.5 -0.7,-0.2 -1.4,-0.5 -2,-0.7 -2.7,-0.9 -5.5,-1.5 -8.4,-2.1 -4.5,-0.9 -9,-1.8 -13.6,-2.4 0.4,-0.1 0.9,-0.3 1.3,-0.4 3.5,-1 7,-2 10.4,-3 3.4,-0.9 6.8,-1.8 10.2,-2.6 7.1,-1.7 14.3,-3.1 21.5,-4.2 6.5,-0.3 12.9,-0.7 19.3,-1 z M 45.3,239 c 0.1,-0.5 0.2,-1 0.4,-1.4 0.1,-0.2 0.2,-0.5 0.4,-0.7 0.1,-0.1 0.3,-0.2 0.4,-0.3 2.2,-1.9 4.3,-3.9 6.5,-5.8 0.9,-0.7 1.8,-1.4 2.8,-2 1.2,-0.7 2.3,-1.3 3.6,-1.9 1.4,-0.5 2.8,-1 4.2,-1.3 1.7,-0.4 3.4,-0.9 5.2,-1.3 1.7,-0.4 3.4,-0.7 5.1,-1.1 1.8,-0.4 3.5,-0.8 5.3,-1.1 2.3,-0.3 4.7,-0.4 7,-0.5 0.4,0 0.9,0 1.3,0 0.1,0.5 0.2,0.9 0.3,1.4 0.2,0.7 0.5,1.3 0.9,1.8 0.5,0.6 1,1.1 1.6,1.5 1.3,0.8 2.9,0.9 4.3,0.7 1.2,-0.2 2.5,-0.7 3.5,-1.4 0.5,-0.3 0.9,-0.7 1.3,-1.1 0.3,-0.3 0.6,-0.7 0.9,-1.1 0.3,-0.4 0.6,-0.9 0.8,-1.4 0.3,0 0.7,0 1,0.1 2.7,0.1 5.3,0.4 7.9,0.7 4.3,0.6 8.5,1.3 12.8,2.1 2.3,0.4 4.5,1 6.7,1.7 2,0.7 4,1.4 6,2.2 0.9,0.4 1.7,0.8 2.6,1.3 0.8,0.4 1.6,1 2.4,1.5 1.5,1.2 3,2.5 4.2,4 0.3,0.5 0.6,1 0.9,1.5 0.1,0.4 0.2,0.7 0.3,1.1 0,0.5 0,1 0,1.5 -0.1,0.7 -0.3,1.4 -0.6,2.1 -0.3,0.7 -0.7,1.4 -1.2,2 -1.2,1.5 -2.7,2.8 -4.2,4 -1.2,0.9 -2.5,1.8 -3.9,2.5 -1.4,0.7 -2.8,1.4 -4.2,2 -1.3,0.5 -2.6,1 -3.9,1.4 -1.4,0.4 -2.9,0.8 -4.3,1.1 -0.7,0.2 -1.4,0.3 -2.1,0.5 0.4,-0.3 0.8,-0.6 1.2,-1 1.1,-1.2 1.6,-2.8 1.6,-4.3 0,-0.8 -0.2,-1.4 -0.5,-2.1 -0.3,-0.6 -0.9,-1.1 -1.5,-1.5 -0.6,-0.4 -1.4,-0.5 -2.2,-0.5 0,0 0,0 0,0 -0.9,0 -1.7,0.3 -2.4,0.8 -0.6,0.4 -1.2,1 -1.6,1.6 -0.2,0.2 -0.3,0.5 -0.5,0.7 -0.7,1.1 -0.9,2.5 -0.6,3.8 0.4,1.6 1.9,2.7 3.5,3 0.1,0 0.1,0 0.2,0 -1.2,0.2 -2.3,0.4 -3.5,0.6 -2.6,0.3 -5.3,0.6 -7.9,0.8 -2.8,0.2 -5.5,0.2 -8.3,0.2 -1.9,0 -3.8,0 -5.7,-0.1 -0.1,-0.1 -0.1,-0.2 -0.2,-0.3 0,-0.1 -0.1,-0.2 -0.1,-0.2 0,-0.1 -0.1,-0.2 -0.1,-0.3 -0.1,-0.2 -0.3,-0.4 -0.4,-0.6 0,0 0.1,0.1 0.1,0.1 -0.1,-0.2 -0.3,-0.4 -0.5,-0.5 0,-0.1 -0.1,-0.1 -0.1,-0.2 0.1,-0.2 0.1,-0.4 0.1,-0.5 0,-0.5 -0.2,-0.9 -0.5,-1.3 -0.2,-0.3 -0.4,-0.6 -0.7,-0.8 -0.9,-0.9 -1.9,-1.6 -3.2,-1.9 -0.4,-0.1 -0.8,-0.1 -1.1,-0.1 -0.4,0 -0.9,0 -1.3,0.1 -0.8,0.2 -1.5,0.6 -2.1,1.2 -0.5,0.4 -0.8,0.9 -1.1,1.5 -0.4,0.7 -0.6,1.4 -0.8,2.1 -0.1,0.4 0,0.8 0.2,1.1 -1,-0.1 -2,-0.2 -2.9,-0.3 -3.2,-0.4 -6.4,-0.9 -9.6,-1.7 -1.9,-0.5 -3.7,-1 -5.6,-1.6 -1.5,-0.5 -3.1,-1.1 -4.6,-1.7 -3.1,-1.4 -6.2,-2.8 -9,-4.8 -1.1,-0.9 -2.2,-1.9 -3.1,-3 -0.4,-0.6 -0.7,-1.1 -1,-1.7 -0.2,-0.4 -0.3,-0.9 -0.4,-1.3 -0.1,-0.7 -0.1,-1.1 0,-1.6 z m 306.6,25.1 c -0.2,1.4 -0.6,2.7 -1.1,4 -0.5,1.1 -1.1,2.1 -1.7,3.1 -0.5,0.7 -0.9,1.4 -1.4,2 -0.8,1 -1.7,1.9 -2.6,2.8 -0.9,0.9 -1.8,1.7 -2.8,2.4 -1.3,1 -2.7,1.9 -4.1,2.7 -1.6,0.9 -3.3,1.8 -5,2.7 -3.4,1.6 -6.8,3.2 -10.3,4.7 -2.9,1.2 -5.8,2.3 -8.8,3.3 -3.4,1.1 -6.9,2.2 -10.4,3.1 -6.5,1.8 -13.1,3.3 -19.7,4.6 -6.6,1.3 -13.2,2.4 -19.8,3.4 -6.3,0.8 -12.6,1.6 -18.9,2.4 -6.9,0.8 -13.9,1.6 -20.9,1.9 -6.9,0.3 -13.8,0.3 -20.8,0.3 -6.8,0 -13.5,-0.1 -20.3,-0.3 -13.4,-0.3 -26.8,-1.3 -40.1,-2.9 -3,-0.4 -6,-0.7 -9,-1.1 -6.7,-0.9 -13.3,-1.9 -19.9,-3.2 -6.5,-1.2 -13,-2.9 -19.4,-4.8 -4.4,-1.3 -8.7,-2.6 -13.1,-4.1 -4,-1.3 -7.9,-2.9 -11.7,-4.5 -2.7,-1.2 -5.5,-2.4 -8.1,-3.8 -0.8,-0.4 -1.7,-0.9 -2.5,-1.4 -0.7,-0.4 -1.3,-0.8 -2,-1.2 -1.2,-0.8 -2.4,-1.6 -3.5,-2.4 -2.1,-1.7 -4.1,-3.6 -5.8,-5.8 -1.1,-1.4 -2,-3 -2.8,-4.6 -0.5,-1.3 -0.9,-2.5 -1.1,-3.9 -0.1,-1.1 -0.1,-2.2 0,-3.3 0.3,-1.5 0.7,-2.9 1.2,-4.4 0.6,-1.2 1.2,-2.4 1.9,-3.5 0.2,-0.2 0.3,-0.5 0.5,-0.7 0.9,0.6 1.9,1.2 2.9,1.7 5.3,2.7 10.9,4.8 16.7,6.2 2.6,0.6 5.2,1.1 7.8,1.5 3.1,0.4 6.2,0.8 9.3,1 1.2,0.1 2.4,0.2 3.6,0.2 -0.2,0.9 -0.4,1.7 -0.5,2.6 -0.5,3.5 -0.3,7.3 1.1,10.7 1.1,2.7 2.8,5 4.7,7.2 3.6,4.1 8.1,7.4 12.9,10.1 4.8,2.7 9.9,4.9 15.1,6.5 2.6,0.8 5.3,1.5 8,2.2 2.5,0.6 5.1,1.1 7.7,1.5 1.5,0.3 2.9,0.5 4.4,0.7 1.2,0.2 2.4,0.3 3.6,0.5 1.4,0.1 2.7,0.3 4.1,0.4 1.4,0.1 2.9,0.2 4.3,0.2 1.4,0 2.8,0 4.2,0 1.2,0 2.3,0 3.5,-0.1 2.9,-0.3 5.8,-0.6 8.6,-1.1 5.2,-0.8 10.4,-2 15.4,-3.7 1.3,-0.4 2.6,-0.9 3.9,-1.4 1.4,-0.6 2.8,-1.2 4.2,-1.9 1.1,-0.6 2.2,-1.3 3.3,-2 1.1,-0.8 2.2,-1.6 3.1,-2.6 0.7,0.1 1.4,0.2 2.1,0.3 2.3,0.3 4.7,0.5 7,0.7 2.4,0.2 4.8,0.3 7.2,0.3 2.3,0.1 4.6,0 6.9,0 2.3,0 4.7,-0.1 7,-0.2 9.4,-0.3 18.8,-1.5 27.8,-4.1 2.3,-0.6 4.5,-1.4 6.8,-2.3 1.1,-0.4 2.1,-0.9 3.2,-1.3 2.8,-1.1 5.4,-2.7 7.7,-4.6 2.3,-1.9 4.3,-4.4 5.1,-7.3 0.4,-1.4 0.7,-3 0.5,-4.5 -0.2,-1.5 -0.5,-2.9 -1.1,-4.3 -1.5,-3.5 -4.3,-6.3 -7.4,-8.4 -0.9,-0.7 -1.9,-1.3 -2.9,-1.9 -1,-0.6 -2,-1.2 -3.1,-1.7 -1,-0.4 -1.9,-0.9 -2.9,-1.3 1.6,0.6 3.2,1.2 4.8,1.7 4.3,1.3 8.7,2.4 13.1,3.3 4.7,1 9.4,1.8 14.1,2 2.1,0.1 4.2,0.2 6.3,0.1 2.8,-0.1 5.5,-0.6 8.2,-1.2 2.7,-0.6 5.3,-1.8 7.8,-2.9 1.9,-0.8 3.8,-1.7 5.7,-2.5 4.8,-2 9.7,-3.9 14,-6.7 1.2,-0.8 2.3,-1.5 3.5,-2.3 0.5,0.6 1,1.1 1.4,1.7 1.5,2 2.9,4 4.3,6 0.8,1.1 1.5,2.3 2.2,3.5 0.6,1 1.1,2.1 1.6,3.2 0.4,1.1 0.7,2.2 0.9,3.3 0.4,1.2 0.4,2.3 0.3,3.5 z"
           id="path3770"
           inkscape:connector-curvature="0"
           style="fill:#000000;fill-opacity:1;stroke:#000000" />
        <path
           d="m 60.7,242.2 c 0.4,0.4 1,0.7 1.5,0.9 0.3,0.1 0.7,0.2 1.1,0.2 0.2,0 0.3,0 0.5,0 0.7,-0.1 1.1,-0.2 1.7,-0.5 0.9,-0.4 1.4,-1.3 1.8,-2.2 0.2,-0.6 0.1,-1.3 0,-2 -0.1,-0.3 -0.2,-0.6 -0.4,-0.8 -0.2,-0.3 -0.4,-0.6 -0.7,-0.9 -0.2,-0.2 -0.4,-0.3 -0.6,-0.4 -0.1,-0.1 -0.1,-0.1 -0.2,-0.2 -0.4,-0.3 -0.9,-0.5 -1.4,-0.5 -0.4,-0.2 -0.8,-0.3 -1.3,-0.3 -0.3,0 -0.6,0.1 -0.9,0.2 -0.3,0.1 -0.5,0.2 -0.7,0.3 -0.5,0.3 -0.6,0.5 -1,0.9 -0.3,0.4 -0.5,0.8 -0.6,1.3 -0.3,1.1 -0.1,2.2 0.4,3.1 0.3,0.3 0.6,0.6 0.8,0.9 z m 3.2,-3.6 v 0 0 z"
           id="path3772"
           inkscape:connector-curvature="0"
           style="fill:#000000;fill-opacity:1;stroke:#000000" />
        <path
           d="m 96.4,242 c 0.7,0.8 1.9,1.4 3,1.4 1.1,0 2.1,-0.4 2.9,-1.2 0.7,-0.7 1.1,-1.8 1.1,-2.8 0,-0.5 -0.1,-0.9 -0.3,-1.3 0.3,-0.6 0.3,-1.3 -0.1,-1.9 -0.2,-0.4 -0.4,-0.7 -0.7,-1.1 -0.4,-0.6 -1,-1.1 -1.7,-1.3 -0.2,-0.1 -0.5,-0.1 -0.7,-0.1 -0.3,0 -0.7,0.1 -1,0.1 -0.5,0.1 -1,0.5 -1.4,0.8 -0.5,0.4 -0.8,0.9 -1.2,1.3 -0.3,0.4 -0.6,0.9 -0.8,1.4 -0.2,0.5 -0.3,1 -0.3,1.5 0,0.4 0.1,0.9 0.2,1.3 0.2,0.9 0.6,1.4 1,1.9 z m 3.3,-2.9 c 0,0 0,0 0,0 0,0 0,0 0,0 0,0 0,0 0,0 z m -0.3,0.1 c 0,0.1 0,0.1 0,0 0,0.1 0,0.1 0,0 0,0 0,0 0,0 z"
           id="path3774"
           inkscape:connector-curvature="0"
           style="fill:#000000;fill-opacity:1;stroke:#000000" />
        <path
           d="m 123.8,236.8 c 0.2,0.2 0.5,0.4 0.7,0.5 0.4,0.2 0.8,0.3 1.1,0.4 0.6,0.2 1.3,0.2 1.9,0.2 1.2,-0.1 2.5,-0.6 3.2,-1.8 0.1,-0.2 0.3,-0.5 0.3,-0.8 0.1,-0.3 0.1,-0.7 0.2,-1 0,-0.3 0,-0.6 -0.1,-0.9 0,-0.2 0,-0.4 0,-0.6 0,-0.6 -0.2,-1.2 -0.5,-1.7 -0.3,-0.6 -0.8,-0.9 -1.3,-1.3 -0.3,-0.2 -0.7,-0.3 -1,-0.4 -0.3,-0.1 -0.9,-0.2 -1.1,-0.2 0,0 0,0 0,0 -1.1,0 -2.1,0.4 -3,1.1 -0.5,0.4 -1,0.8 -1.3,1.3 -0.4,0.6 -0.6,1.3 -0.6,2 0,0.7 0.3,1.3 0.6,1.9 0,0.5 0.5,0.9 0.9,1.3 z m 2.9,-3.6 c 0,0 0,0.1 0,0 v 0 c 0,0.1 0,0 0,0 z"
           id="path3776"
           inkscape:connector-curvature="0"
           style="fill:#000000;fill-opacity:1;stroke:#000000" />
        <path
           d="m 163.7,236.5 c 1.2,-0.1 2.3,-0.7 3,-1.7 0.1,-0.2 0.2,-0.5 0.3,-0.7 0.3,-0.4 0.6,-0.9 0.7,-1.4 0.2,-1.1 -0.1,-2.2 -0.8,-3 0.1,-0.5 0,-1 -0.2,-1.4 -0.3,-0.5 -0.7,-0.7 -1.2,-0.9 -0.3,-0.1 -0.6,-0.2 -0.9,-0.3 -0.2,-0.1 -0.5,-0.1 -0.7,-0.1 -0.3,0 -0.7,0.1 -1,0.1 -0.5,0.2 -0.9,0.5 -1.3,0.9 -0.5,0.5 -0.7,1.1 -0.9,1.7 -0.1,0.2 -0.1,0.4 -0.2,0.7 -0.5,0.7 -0.8,1.5 -0.8,2.2 -0.1,1.1 0.3,2.1 1,3 0.7,0.6 1.9,1 3,0.9 z"
           id="path3778"
           inkscape:connector-curvature="0"
           style="fill:#000000;fill-opacity:1;stroke:#000000" />
        <path
           d="m 190.8,234.3 c 0.1,0.2 0.2,0.4 0.3,0.6 0.2,0.3 0.4,0.5 0.6,0.7 0.2,0.2 0.4,0.3 0.7,0.5 0.3,0.2 0.6,0.3 0.9,0.4 0.5,0.2 1,0.2 1.5,0.2 0.5,-0.1 1,-0.2 1.4,-0.5 0.3,-0.2 0.5,-0.4 0.7,-0.7 0.1,-0.1 0.2,-0.3 0.3,-0.4 0.3,-0.4 0.5,-0.9 0.6,-1.4 0.1,-0.4 0.1,-0.7 0.1,-1 0,-0.6 -0.2,-1.1 -0.5,-1.6 -0.1,-0.2 -0.3,-0.4 -0.5,-0.5 0,-0.1 0,-0.2 0,-0.3 0,-0.4 -0.3,-0.7 -0.8,-0.8 -0.5,0 -1,-0.1 -1.5,-0.1 0,0 0,0 0,0 -0.5,0 -1,0.2 -1.5,0.5 -0.1,0 -0.1,0.1 -0.2,0.1 -0.5,0.3 -0.7,0.6 -1.1,1.1 0,0 0,0 0,0 -0.4,0.3 -0.8,0.7 -1,1.1 -0.2,0.4 -0.3,0.6 -0.3,1 0,0.3 0,0.6 0.1,0.8 0.1,0.2 0.2,0.2 0.2,0.3 z"
           id="path3780"
           inkscape:connector-curvature="0"
           style="fill:#000000;fill-opacity:1;stroke:#000000" />
        <path
           d="m 172.3,250 c 0.2,0.4 0.5,0.7 0.8,1.1 0.4,0.5 0.9,0.8 1.5,1.1 0.8,0.4 1.5,0.6 2.4,0.7 0.5,0 0.8,0 1.3,-0.1 0.5,-0.1 0.8,-0.2 1.2,-0.4 0.3,-0.1 0.5,-0.2 0.7,-0.4 0.3,-0.2 0.5,-0.4 0.7,-0.6 0.2,-0.2 0.4,-0.5 0.6,-0.7 0.2,-0.3 0.3,-0.7 0.5,-1.1 0,-0.1 0.1,-0.2 0.1,-0.3 0,0 0,0 0,0 0,-0.1 0,-0.2 0.1,-0.3 0.1,-0.3 0.1,-0.6 0.1,-0.8 0,-0.7 -0.3,-1.5 -0.6,-2.1 -0.3,-0.5 -0.7,-1 -1.1,-1.4 -0.4,-0.4 -0.9,-0.7 -1.4,-1 -0.7,-0.3 -1.4,-0.5 -2.2,-0.5 -0.7,0 -1.4,0.2 -2.1,0.5 -0.6,0.3 -1.1,0.7 -1.6,1.2 -0.6,0.5 -1,1.1 -1.2,1.8 -0.1,0.4 -0.2,0.8 -0.2,1.2 0,0.4 0.1,0.8 0.1,1.2 0,0.3 0.2,0.6 0.3,0.9 z m 4.8,-2.4 c 0,0 0,0 0,0 0,0 0,0 0,0 0,0 0,0 0,0 z"
           id="path3782"
           inkscape:connector-curvature="0"
           style="fill:#000000;fill-opacity:1;stroke:#000000" />
        <path
           d="m 121.9,269 c -0.4,-0.2 -0.8,-0.3 -1.2,-0.4 -0.2,-0.1 -0.3,-0.1 -0.5,-0.2 -0.5,-0.1 -0.9,-0.2 -1.4,-0.2 -0.4,0 -0.9,0.1 -1.3,0.2 -0.9,0.3 -1.6,0.8 -2.3,1.5 -1.6,1.6 -1.6,4.6 0.2,6.1 0.6,0.5 1,0.8 1.7,0.9 0,0 0,0 0,0 0,0 0,0 0.1,0 0.3,0.1 0.6,0.3 0.9,0.4 0.4,0.1 0.9,0.2 1.3,0.2 0.6,0.1 1.2,-0.2 1.7,-0.4 0.4,-0.2 0.6,-0.4 1,-0.7 0.3,-0.3 0.6,-0.6 0.8,-0.9 0.1,-0.1 0.1,-0.2 0.2,-0.3 0.4,-0.3 0.7,-0.7 1,-1.1 0.3,-0.6 0.4,-1.2 0.4,-1.9 -0.3,-1.4 -1.2,-2.6 -2.6,-3.2 z m -3.9,3.2 c 0,0.1 0,0.1 0,0 v 0 c 0,0.1 0,0.1 0,0 0,0 0,0 0,0 z m 0,0 c 0,0 0,0 0,0 0,0 0,0 0,0 0,0 0,0 0,0 z"
           id="path3784"
           inkscape:connector-curvature="0"
           style="fill:#000000;fill-opacity:1;stroke:#000000" />
        <path
           d="m 148.5,273.5 c -0.7,-0.4 -1.3,-0.5 -2,-0.6 -0.1,0 -0.2,0 -0.3,0 -0.9,0 -1.8,0.3 -2.6,0.8 -0.8,0.5 -1.6,1.3 -2.1,2.2 -0.3,0.7 -0.6,1.3 -0.6,2.2 0,0.4 0.1,0.8 0.2,1.3 0,0 0,0 0,0 0,0.2 0.1,0.4 0.1,0.5 0.2,0.6 0.5,1.1 0.9,1.6 0.2,0.3 0.6,0.6 0.9,0.7 0.8,0.4 1.5,0.6 2.4,0.6 1.4,0 3,-0.7 3.9,-1.8 0.6,-0.7 1,-1.4 1.2,-2.3 0.3,-1.2 0.1,-2.8 -0.7,-3.8 -0.3,-0.6 -0.7,-1 -1.3,-1.4 z m -2,4.8 c 0,0 0,0 0,0 v 0 c 0,0 0,0 0,0 0,0 0,0 0,0 z"
           id="path3786"
           inkscape:connector-curvature="0"
           style="fill:#000000;fill-opacity:1;stroke:#000000" />
        <path
           d="m 172.6,276.2 c 0.5,-0.9 0.5,-2.1 0,-3 -0.6,-1 -1.7,-1.5 -2.8,-1.5 0,0 -0.1,0 -0.1,0 -0.7,-0.3 -1.5,-0.5 -2.3,-0.6 0,0 0,0 -0.1,0 -0.8,0 -1.6,0.3 -2.1,0.9 -0.6,0.6 -0.8,1.4 -0.8,2.1 -0.2,0.3 -0.4,0.7 -0.5,1 -0.2,0.7 -0.2,1.4 0,2.2 0.3,1 1,1.8 1.9,2.4 1.1,0.7 2.3,0.9 3.6,1.1 0.3,0 0.5,0.1 0.8,0.1 0.5,0 1,-0.1 1.5,-0.4 0.7,-0.4 1.2,-1 1.4,-1.8 0.2,-0.9 0,-1.8 -0.5,-2.5 0,0 0,0 0,0 z"
           id="path3788"
           inkscape:connector-curvature="0"
           style="fill:#000000;fill-opacity:1;stroke:#000000" />
        <path
           d="m 188.5,288.4 c 0.5,-0.1 0.9,-0.2 1.4,-0.4 0.4,-0.2 0.8,-0.5 1.1,-0.8 0.2,-0.2 0.3,-0.4 0.5,-0.7 0,0 0,-0.1 0.1,-0.1 0.1,-0.1 0.2,-0.2 0.2,-0.3 0.1,-0.2 0.2,-0.4 0.3,-0.7 0,0 0,0 0,0 0.4,0.2 0.9,0.1 1.2,-0.3 0.2,-0.4 0.1,-1 -0.3,-1.2 -0.3,-0.2 -0.7,-0.3 -1,-0.5 -0.4,-1.1 -1.4,-1.7 -2.5,-1.9 -0.2,-0.1 -0.5,-0.1 -0.7,-0.1 -0.2,0 -0.5,0 -0.7,0.1 -0.4,0.1 -0.7,0.3 -1,0.5 -0.2,0.1 -0.4,0.3 -0.6,0.4 -0.7,0.6 -1,1.6 -0.9,2.5 -0.1,0.2 -0.1,0.3 -0.1,0.5 -0.1,0.5 0,0.9 0.3,1.3 0.4,0.7 1.2,1.3 2,1.4 0.1,0.3 0.4,0.3 0.7,0.3 z"
           id="path3790"
           inkscape:connector-curvature="0"
           style="fill:#000000;fill-opacity:1;stroke:#000000" />
        <path
           d="m 221.8,265.8 c 0,-0.7 -0.3,-1.3 -0.7,-1.8 -0.1,-0.1 -0.2,-0.2 -0.2,-0.2 -0.2,-0.3 -0.4,-0.6 -0.7,-0.8 -0.8,-0.7 -1.7,-0.9 -2.6,-0.9 -1.3,0 -2.5,0.5 -3.5,1.4 -0.3,0.3 -0.6,0.6 -0.8,0.9 -0.3,0.4 -0.5,0.9 -0.7,1.4 -0.2,0.5 -0.2,1.1 -0.2,1.6 0.1,0.7 0.3,1.2 0.6,1.8 0.2,0.4 0.5,0.7 0.9,1.1 0.3,0.3 0.7,0.6 1.1,0.8 0.9,0.5 2.1,0.8 3.1,0.7 1.1,0 2.1,-0.5 2.9,-1.1 0.8,-0.7 1.2,-1.8 1.3,-2.8 0,-0.7 -0.1,-1.3 -0.4,-1.9 -0.1,-0.1 -0.1,-0.1 -0.1,-0.2 z"
           id="path3792"
           inkscape:connector-curvature="0"
           style="fill:#000000;fill-opacity:1;stroke:#000000" />
        <path
           d="m 240.9,259.1 c 0.5,0.2 1,0.2 1.5,0.2 0.2,0 0.4,0 0.6,-0.1 0.3,0 0.5,0 0.8,-0.1 0.7,-0.1 1.3,-0.5 1.8,-1 0.7,-0.6 0.9,-1.6 1,-2.4 0,0 0,0 0,0 0.1,-0.3 0.1,-0.7 0,-1 -0.1,-0.4 -0.3,-0.9 -0.4,-1.3 -0.1,-0.4 -0.3,-0.8 -0.5,-1.2 -0.3,-0.5 -0.7,-0.8 -1.2,-1.1 -0.5,-0.3 -1.1,-0.4 -1.7,-0.4 -0.1,0 -0.1,0 -0.2,0 -0.6,0 -1.2,0.2 -1.7,0.5 -1,0.5 -1.8,1.2 -2.5,2.1 -0.7,1.1 -0.6,2.5 -0.1,3.6 0.6,1 1.5,1.8 2.6,2.2 z m 1.3,-4.3 c 0,0 0,0.1 0,0 0,0.1 0,0 0,0 0,0 0,0 0,0 z"
           id="path3794"
           inkscape:connector-curvature="0"
           style="fill:#000000;fill-opacity:1;stroke:#000000" />
        <path
           d="m 248.6,275.9 c 0.3,0.6 0.9,1.1 1.5,1.4 0.6,0.4 1.4,0.5 2.1,0.6 0.4,0 0.7,-0.1 1.1,-0.1 0.3,-0.1 0.7,-0.2 1,-0.4 0.6,-0.3 1.1,-0.9 1.4,-1.5 0.3,-0.5 0.4,-1 0.4,-1.6 0,-0.3 -0.1,-0.6 -0.1,-0.9 0.2,-0.3 0.3,-0.6 0.3,-1 0,-0.4 -0.1,-0.8 -0.1,-1.3 -0.1,-0.4 -0.2,-0.7 -0.4,-1.1 -0.4,-0.8 -1.2,-1.3 -2,-1.6 -0.3,-0.1 -0.6,-0.2 -0.9,-0.2 -0.7,0 -1.4,0.2 -2,0.5 -0.4,0.2 -0.8,0.5 -1.2,0.8 -0.4,0.3 -0.6,0.7 -0.9,1.1 -0.5,0.7 -0.8,1.7 -0.7,2.6 0,0.3 0.1,0.6 0.2,0.9 -0.2,0.7 0,1.2 0.3,1.8 z m 3.7,-3.3 c 0,0 0,0 0,0 0,0 0,0 0,0 z m -0.1,0 c 0,0 0.1,0.1 0.1,0.1 0,0 0,0 -0.1,-0.1 0,0 0,0 0,0 z"
           id="path3796"
           inkscape:connector-curvature="0"
           style="fill:#000000;fill-opacity:1;stroke:#000000" />
        <path
           d="m 268.6,272.2 c 0.6,-0.1 1.1,-0.2 1.7,-0.5 0.6,-0.3 0.8,-0.7 1.2,-1.2 0.2,-0.3 0.3,-0.7 0.4,-1 0,-0.3 0.1,-0.6 0.1,-0.9 0,-0.4 -0.2,-1.3 -0.4,-1.6 -0.2,-0.2 -0.3,-0.5 -0.5,-0.7 -0.4,-0.4 -0.8,-0.6 -1.3,-0.7 0,0 -0.1,0 -0.1,0 -0.1,-0.1 -0.3,-0.1 -0.4,-0.2 -0.3,-0.1 -0.5,-0.1 -0.8,-0.1 -0.8,0 -1.5,0.3 -2.1,0.9 -0.6,0.5 -0.9,1.1 -1.2,1.9 -0.4,1.1 0,2.4 0.8,3.2 0.7,0.5 1.7,1 2.6,0.9 z"
           id="path3798"
           inkscape:connector-curvature="0"
           style="fill:#000000;fill-opacity:1;stroke:#000000" />
      </g>
    </g>
  </g>
</svg>
